<?xml version="1.0" encoding="utf-8"?>
<!-- Generator: Adobe Illustrator 24.3.0, SVG Export Plug-In . SVG Version: 6.00 Build 0)  -->
<svg version="1.1" id="レイヤー_1" xmlns="http://www.w3.org/2000/svg" xmlns:xlink="http://www.w3.org/1999/xlink" x="0px"
	 y="0px" viewBox="0 0 150 150" style="enable-background:new 0 0 150 150;" xml:space="preserve">
<style type="text/css">
	.st0{fill:#D74C20;}
	.st1{fill:#E5662F;}
	.st2{fill:#FCEFF5;}
	.st3{fill:none;}
	.st4{fill:#F0E9ED;}
</style>
<g id="shita">
</g>
<g id="ue">
	<polygon class="st0" points="106.2,119.4 75.6,127.7 44.5,119.4 37.5,42.1 112.5,42.1 	"/>
	<polygon class="st1" points="75.6,48.1 75.6,122.1 100.9,114.8 106.2,48.5 	"/>
	<polygon class="st2" points="98.1,67.2 98.7,57.6 51,57.6 54,86.3 86.4,86.3 86.4,97.9 75.5,101 64.6,98.1 64.6,91.7 54.6,91.7 
		55.6,106.1 75.1,112.3 94.1,105.6 96.6,76.8 62.8,76.8 61.7,67.4 	"/>
	<polygon points="73.5,22.3 61.6,22.3 61.6,26.6 65.6,26.6 65.6,35.3 69.8,35.3 69.8,26.6 73.5,26.6 	"/>
	<polygon points="86.9,22.3 86.9,22.4 83.8,27.3 80.7,22.4 80.5,22.5 80.5,22.3 76.5,22.3 76.5,35.3 80.5,35.3 80.5,27.7 83.8,32.9 
		86.9,28 86.9,35.3 90.9,35.3 90.9,22.3 	"/>
	<polygon points="98.8,31.1 98.8,22.3 94.8,22.3 94.8,35.3 95,35.3 105.4,35.3 105.4,31.1 	"/>
	<polygon points="54.2,22.3 54.2,26.6 50.1,26.6 50.1,22.3 45.8,22.3 45.8,35.3 50.1,35.3 50.1,30.9 54.2,30.9 54.2,35.3 58.5,35.3 
		58.5,22.3 	"/>
	<polygon class="st3" points="62.8,76.8 75.6,76.8 75.6,67.4 61.7,67.4 	"/>
	<polygon class="st1" points="86.4,86.3 75.6,86.3 75.6,101 86.4,97.9 	"/>
	<polygon class="st1" points="75.6,48.1 75.6,57.6 98.7,57.6 98.1,67.2 75.6,67.4 75.6,76.8 96.6,76.8 94.1,105.6 75.6,112.1 
		75.6,122.1 100.9,114.8 106.2,48.5 	"/>
	<polygon class="st4" points="75.5,101 64.6,98.1 64.6,91.7 54.6,91.7 55.6,106.1 75.1,112.3 75.6,112.1 75.6,101 	"/>
	<polygon class="st4" points="62.8,76.8 61.7,67.4 75.6,67.4 75.6,57.6 51,57.6 54,86.3 75.6,86.3 75.6,76.8 	"/>
	<polygon class="st2" points="98.1,67.2 98.7,57.6 75.6,57.6 75.6,67.4 	"/>
	<polygon class="st2" points="96.6,76.8 75.6,76.8 75.6,86.3 86.4,86.3 86.4,97.9 75.6,101 75.6,112.1 94.1,105.6 	"/>
</g>
</svg>
