<?xml version="1.0" encoding="utf-8"?>
<!-- Generator: Adobe Illustrator 24.3.0, SVG Export Plug-In . SVG Version: 6.00 Build 0)  -->
<svg version="1.1" id="レイヤー_1" xmlns="http://www.w3.org/2000/svg" xmlns:xlink="http://www.w3.org/1999/xlink" x="0px"
	 y="0px" viewBox="0 0 150 150" style="enable-background:new 0 0 150 150;" xml:space="preserve">
<style type="text/css">
	.st0{fill:url(#SVGID_1_);}
	.st1{fill:#FF7F18;}
</style>
<g>
	
		<radialGradient id="SVGID_1_" cx="-184.0417" cy="328.659" r="4.302933e-02" gradientTransform="matrix(1489.9915 0 0 1414.8582 274281.2188 -464953.0625)" gradientUnits="userSpaceOnUse">
		<stop  offset="0" style="stop-color:#423325;stop-opacity:0.98"/>
		<stop  offset="1" style="stop-color:#1C0A00"/>
	</radialGradient>
	<path class="st0" d="M32.8,34.8h84.3v80.5H32.8V34.8z"/>
	<path class="st1" d="M32.8,34.8h84.3v80.5H32.8V34.8z M29,119h92V31H29V119z M89.3,62.4c0-0.3,0.1-0.4,0.5-0.4h6
		c0.3,0,0.5,0.1,0.5,0.4V92c0,0.3-0.1,0.4-0.5,0.4h-5.9c-0.4,0-0.5-0.2-0.5-0.5L89.3,62.4L89.3,62.4L89.3,62.4z M88.9,53.8
		c0-2.4,1.8-3.8,3.9-3.8c2.3,0,3.9,1.5,3.9,3.8c0,2.5-1.6,3.8-4,3.8C90.5,57.7,88.9,56.3,88.9,53.8z M71.7,74.7
		c-1.1-4.1-3.6-13.3-4.6-17.7H67c-0.8,4.4-2.9,11.9-4.4,17.7H71.7z M61,80.8l-3.1,11.3c-0.1,0.3-0.2,0.4-0.6,0.4h-5.7
		c-0.4,0-0.5-0.1-0.4-0.6l10.9-37.4c0.2-0.7,0.3-1.3,0.4-3.1c0-0.3,0.1-0.4,0.3-0.4h8.1c0.3,0,0.4,0.1,0.5,0.4L83.6,92
		c0.1,0.3,0,0.5-0.3,0.5h-6.4c-0.3,0-0.5-0.1-0.6-0.3l-3.1-11.4L61,80.8L61,80.8z"/>
</g>
</svg>
