<?xml version="1.0" encoding="utf-8"?>
<!-- Generator: Adobe Illustrator 24.3.0, SVG Export Plug-In . SVG Version: 6.00 Build 0)  -->
<svg version="1.1" id="レイヤー_1" xmlns="http://www.w3.org/2000/svg" xmlns:xlink="http://www.w3.org/1999/xlink" x="0px"
	 y="0px" viewBox="0 0 150 150" style="enable-background:new 0 0 150 150;" xml:space="preserve">
<style type="text/css">
	.st0{fill:#FFFFFF;}
	.st1{fill:#D4B830;}
	.st2{opacity:0.986;fill:#EBEBEB;fill-opacity:0;enable-background:new    ;}
	.st3{opacity:0.986;fill:#EBEBEB;fill-opacity:0.9216;enable-background:new    ;}
	.st4{fill:#FDD83C;}
</style>
<g>
	<rect x="75" y="46.2" class="st0" width="34.9" height="65.6"/>
	<g id="g5193" transform="translate(4.988 -113.385)">
		<path id="path5113" class="st1" d="M33.2,229l-8.3-84.7h90.2l-8.3,84.7l-36.9,9.7L33.2,229z M99.9,224.5l7-72.5h-37l0.3,80.1
			L99.9,224.5z M66.6,162.5h-9L57.5,206L40,201.7v10l26.4,6.7L66.6,162.5L66.6,162.5z"/>
		<path id="path5159" class="st2" d="M63.6,217.3c-1.1-0.3-6.9-1.8-12.8-3.2l-10.7-2.5v-4.8c0-4.8,0-4.8,0.6-4.7
			c0.3,0.1,4.1,1,8.6,2.2l8,2.1l0.1-21.6l0.1-21.6h8.8v27.6c0,22-0.1,27.6-0.3,27.6C65.9,217.9,64.8,217.7,63.6,217.3L63.6,217.3z"
			/>
		<path id="path5157" class="st3" d="M40.1,211.6v-10c0,0,11.1,2.8,17.4,4.4l0.1-43.5h9v55.6L40.1,211.6L40.1,211.6z"/>
		<path id="path5117" class="st4" d="M69.9,151.8h36.9l-7,72.5l-29.9,7.6V151.8z M98,212.3l2.4-27.2l-18,1.9v-14.5l19.1-0.1l0.8-10
			l-28.8,0.1l0.4,36.1l17.4-2.7l-0.2,8l-17.6,4.3l0.1,9.9L98,212.3L98,212.3z"/>
	</g>
</g>
</svg>
