<?xml version="1.0" encoding="utf-8"?>
<!-- Generator: Adobe Illustrator 24.3.0, SVG Export Plug-In . SVG Version: 6.00 Build 0)  -->
<svg version="1.1" id="レイヤー_1" xmlns="http://www.w3.org/2000/svg" xmlns:xlink="http://www.w3.org/1999/xlink" x="0px"
	 y="0px" viewBox="0 0 150 150" style="enable-background:new 0 0 150 150;" xml:space="preserve">
<style type="text/css">
	.st0{fill:url(#SVGID_1_);}
	.st1{fill:#31C5F0;}
</style>
<g>
	
		<radialGradient id="SVGID_1_" cx="-184.0383" cy="328.6644" r="2.797102e-02" gradientTransform="matrix(2291.1311 0 0 2177.7869 421716.5938 -715708.4375)" gradientUnits="userSpaceOnUse">
		<stop  offset="0" style="stop-color:#34364E;stop-opacity:0.98"/>
		<stop  offset="1" style="stop-color:#0C0824"/>
	</radialGradient>
	<path class="st0" d="M32.8,34.7h84.3v80.5H32.8V34.7z"/>
	<path class="st1" d="M32.8,34.7h84.3v80.5H32.8V34.7z M29,119h92V31H29V119z M91,67.1c-3,0-4.1,1.5-4.1,2.8c0,1.4,0.7,2.3,4.7,4.4
		c6,2.8,7.9,5.6,7.9,9.6c0,6-4.7,9.2-11,9.2c-3.4,0-6.2-0.6-7.9-1.6c-0.3-0.1-0.3-0.3-0.3-0.6v-5.6c0-0.4,0.2-0.5,0.5-0.3
		c2.5,1.6,5.3,2.3,7.8,2.3c3,0,4.3-1.2,4.3-2.9c0-1.4-0.9-2.6-4.7-4.5c-5.5-2.6-7.7-5.2-7.7-9.5c0-4.8,3.9-8.9,10.6-8.9
		c3.3,0,5.6,0.5,6.8,1c0.3,0.2,0.4,0.5,0.4,0.8v5.2c0,0.3-0.2,0.5-0.6,0.4C96,67.7,93.5,67.1,91,67.1L91,67.1z M58,71.6
		c0.9,0.1,1.6,0.1,3.1,0.1c4.5,0,8.7-1.5,8.7-7.5c0-4.8-3-7.2-8.1-7.2c-1.5,0-3,0.1-3.7,0.1L58,71.6L58,71.6z M51.2,51.6
		c0-0.3,0.5-0.5,0.9-0.5c2.4-0.1,6.1-0.2,9.9-0.2c10.6,0,14.8,5.7,14.8,13c0,9.5-7,13.7-15.7,13.7c-1.4,0-2-0.1-3-0.1V92
		c0,0.3-0.1,0.5-0.5,0.5h-5.8c-0.3,0-0.5-0.1-0.5-0.5L51.2,51.6L51.2,51.6z"/>
</g>
</svg>
