<?xml version="1.0" encoding="utf-8"?>
<!-- Generator: Adobe Illustrator 24.3.0, SVG Export Plug-In . SVG Version: 6.00 Build 0)  -->
<svg version="1.1" id="ps_x5F_cc_x5F_app_x5F_RGB.svg"
	 xmlns="http://www.w3.org/2000/svg" xmlns:xlink="http://www.w3.org/1999/xlink" x="0px" y="0px" viewBox="0 0 150 150"
	 style="enable-background:new 0 0 150 150;" xml:space="preserve">
<style type="text/css">
	.st0{fill:#2E001E;}
	.st1{fill:#FF2BC2;}
</style>
<g>
	<path class="st0" d="M32.9,34.8h84.3v80.5H32.9V34.8z"/>
	<path class="st1" d="M29,31v88h92V31H29z M32.9,34.8h84.3v80.5H32.9V34.8z"/>
	<path class="st1" d="M95.8,68c-0.6-0.3-1.3-0.4-2.2-0.4c-4.9,0-8,3.6-8,9.7c0,6.9,3.3,9.7,7.6,9.7c0.9,0,1.9-0.1,2.6-0.4L95.8,68
		L95.8,68z M78.7,77.6c0-8.8,5.7-15.6,15.2-15.6c0.8,0,1.2,0,2,0.1v-9.8c0-0.3,0.2-0.4,0.4-0.4h6.2c0.3,0,0.4,0.1,0.4,0.3v34.4
		c0,1,0,2.3,0.2,3.7c0,0.3,0,0.3-0.3,0.4c-3.2,1.5-6.6,2.2-9.8,2.2C84.6,92.9,78.7,87.9,78.7,77.6L78.7,77.6z M65.6,71.5l10.7,20.4
		c0.2,0.3,0.1,0.6-0.3,0.6h-6.6c-0.4,0-0.6-0.1-0.8-0.5c-2.4-4.9-4.9-10.1-7.5-15.5H61c-2.3,5-4.9,10.5-7.3,15.5
		c-0.2,0.3-0.4,0.4-0.7,0.4h-6.4c-0.4,0-0.4-0.3-0.3-0.5l10.5-19.8L46.8,52.5c-0.3-0.3,0-0.6,0.3-0.6h6.6c0.4,0,0.6,0.1,0.7,0.4
		c2.4,5,4.9,10,7.2,15h0.1c2.2-4.9,4.7-10,7-14.9c0.2-0.3,0.3-0.5,0.7-0.5h6.2c0.3,0,0.4,0.3,0.3,0.6L65.6,71.5L65.6,71.5z"/>
</g>
</svg>
