<?xml version="1.0" encoding="utf-8"?>
<!-- Generator: Adobe Illustrator 24.3.0, SVG Export Plug-In . SVG Version: 6.00 Build 0)  -->
<svg version="1.1" id="レイヤー_1" xmlns="http://www.w3.org/2000/svg" xmlns:xlink="http://www.w3.org/1999/xlink" x="0px"
	 y="0px" viewBox="0 0 100 150" style="enable-background:new 0 0 100 150;" xml:space="preserve">
<style type="text/css">
	.st0{fill:#FFFFFF;}
	.st1{opacity:0.49;fill:url(#SVGID_1_);}
	.st2{fill:#B4F7FF;}
	.st3{font-family:'HGSSoeiKakugothicUB';}
	.st4{font-size:22.1707px;}
</style>
<ellipse class="st0" cx="50" cy="48.1" rx="36.6" ry="36.6"/>
<linearGradient id="SVGID_1_" gradientUnits="userSpaceOnUse" x1="50" y1="146.05" x2="50" y2="3.5">
	<stop  offset="0" style="stop-color:#000000"/>
	<stop  offset="0" style="stop-color:#2AD8FF"/>
	<stop  offset="0.298" style="stop-color:#52DFFF;stop-opacity:0.848"/>
	<stop  offset="0.9635" style="stop-color:#B5F2FF;stop-opacity:0.5086"/>
	<stop  offset="1" style="stop-color:#BBF3FF;stop-opacity:0.49"/>
</linearGradient>
<path class="st1" d="M50,3.5c-24.8,0-45,20.1-45,45C5,73.3,50,146,50,146s45-72.8,45-97.6C95,23.6,74.8,3.5,50,3.5z M50,84.7
	c-20.2,0-36.6-16.4-36.6-36.6c0-20.2,16.4-36.6,36.6-36.6s36.6,16.4,36.6,36.6C86.6,68.3,70.2,84.7,50,84.7z"/>
<g>
	<text transform="matrix(1 0 0 1 22.8932 55.0306)" class="st2 st3 st4">Scroll</text>
</g>
</svg>
